<svg width="16" height="16" viewBox="0 0 16 16" fill="none" xmlns="http://www.w3.org/2000/svg">
<path d="M6.00016 7.33333C6.52758 7.33333 7.04315 7.17694 7.48168 6.88392C7.92021 6.5909 8.26201 6.17443 8.46384 5.68716C8.66568 5.19989 8.71848 4.66371 8.61559 4.14643C8.5127 3.62914 8.25872 3.15399 7.88578 2.78105C7.51284 2.40811 7.03769 2.15413 6.5204 2.05124C6.00312 1.94835 5.46694 2.00116 4.97967 2.20299C4.4924 2.40482 4.07593 2.74662 3.78291 3.18515C3.48989 3.62368 3.3335 4.13925 3.3335 4.66667C3.3335 5.37391 3.61445 6.05219 4.11454 6.55229C4.61464 7.05238 5.29292 7.33333 6.00016 7.33333ZM11.3335 8.66667C11.7291 8.66667 12.1157 8.54937 12.4446 8.32961C12.7735 8.10984 13.0299 7.79749 13.1813 7.43203C13.3326 7.06658 13.3722 6.66445 13.2951 6.27649C13.2179 5.88853 13.0274 5.53216 12.7477 5.25245C12.468 4.97275 12.1116 4.78227 11.7237 4.7051C11.3357 4.62793 10.9336 4.66753 10.5681 4.81891C10.2027 4.97028 9.89032 5.22663 9.67056 5.55553C9.45079 5.88443 9.3335 6.27111 9.3335 6.66667C9.3335 7.1971 9.54421 7.70581 9.91928 8.08088C10.2944 8.45595 10.8031 8.66667 11.3335 8.66667ZM14.0002 13.3333C14.177 13.3333 14.3465 13.2631 14.4716 13.1381C14.5966 13.013 14.6668 12.8435 14.6668 12.6667C14.6663 12.0436 14.4911 11.4332 14.1612 10.9046C13.8313 10.376 13.3599 9.95051 12.8004 9.67631C12.2409 9.40212 11.6158 9.29023 10.9959 9.35333C10.376 9.41644 9.78625 9.65202 9.2935 10.0333C8.6405 9.3829 7.80953 8.9404 6.90538 8.76162C6.00122 8.58284 5.06438 8.67579 4.21298 9.02876C3.36159 9.38172 2.63377 9.97889 2.12132 10.745C1.60888 11.511 1.33474 12.4117 1.3335 13.3333C1.3335 13.5101 1.40373 13.6797 1.52876 13.8047C1.65378 13.9298 1.82335 14 2.00016 14H10.0002C10.177 14 10.3465 13.9298 10.4716 13.8047C10.5966 13.6797 10.6668 13.5101 10.6668 13.3333" fill="#FCFCFC"/>
</svg>
