<svg width="16" height="16" viewBox="0 0 16 16" fill="currentColor" xmlns="http://www.w3.org/2000/svg">
<path fill-rule="evenodd" clip-rule="evenodd" d="M2.98689 1.06665H2.93356C2.68929 1.06665 2.47916 1.06665 2.29356 1.11038C2.00624 1.17904 1.74353 1.3259 1.53455 1.53469C1.32557 1.74348 1.17848 2.00606 1.10956 2.29332C1.06689 2.47892 1.06689 2.68798 1.06689 2.93332V5.59998C1.06689 5.84425 1.06689 6.05438 1.11063 6.23998C1.17928 6.52731 1.32614 6.79001 1.53494 6.99899C1.74373 7.20797 2.0063 7.35507 2.29356 7.42398C2.47916 7.46665 2.68823 7.46665 2.93356 7.46665H5.60023C5.84449 7.46665 6.05463 7.46665 6.24023 7.42292C6.52755 7.35426 6.79025 7.2074 6.99923 6.99861C7.20822 6.78982 7.35531 6.52724 7.42423 6.23998C7.46689 6.05438 7.46689 5.84532 7.46689 5.59998V2.93332C7.46689 2.68905 7.46689 2.47892 7.42316 2.29332C7.35451 2.006 7.20764 1.74329 6.99885 1.53431C6.79006 1.32533 6.52749 1.17823 6.24023 1.10932C6.05463 1.06665 5.84556 1.06665 5.60023 1.06665H2.98689ZM2.54209 2.14825C2.58796 2.13758 2.65943 2.13332 2.98689 2.13332H5.54689C5.87543 2.13332 5.94583 2.13652 5.99169 2.14825C6.08751 2.17116 6.17511 2.22017 6.24478 2.28983C6.31444 2.3595 6.36345 2.4471 6.38636 2.54292C6.39703 2.58772 6.40023 2.65812 6.40023 2.98665V5.54665C6.40023 5.87518 6.39703 5.94558 6.38529 5.99145C6.36238 6.08727 6.31337 6.17487 6.24371 6.24453C6.17405 6.3142 6.08645 6.3632 5.99063 6.38612C5.94689 6.39572 5.87649 6.39998 5.54689 6.39998H2.98689C2.65836 6.39998 2.58796 6.39678 2.54209 6.38505C2.44628 6.36214 2.35868 6.31313 2.28901 6.24347C2.21935 6.1738 2.17034 6.0862 2.14743 5.99038C2.13783 5.94665 2.13356 5.87625 2.13356 5.54665V2.98665C2.13356 2.65812 2.13676 2.58772 2.14849 2.54185C2.17141 2.44603 2.22041 2.35843 2.29008 2.28877C2.35974 2.2191 2.44734 2.1701 2.54316 2.14718L2.54209 2.14825ZM10.4536 1.06665H10.4002C10.156 1.06665 9.94583 1.06665 9.76023 1.11038C9.47291 1.17904 9.2102 1.3259 9.00122 1.53469C8.79224 1.74348 8.64514 2.00606 8.57623 2.29332C8.53356 2.47892 8.53356 2.68798 8.53356 2.93332V5.59998C8.53356 5.84425 8.53356 6.05438 8.57729 6.23998C8.64595 6.52731 8.79281 6.79001 9.0016 6.99899C9.2104 7.20797 9.47297 7.35507 9.76023 7.42398C9.94583 7.46665 10.1549 7.46665 10.4002 7.46665H13.0669C13.3112 7.46665 13.5213 7.46665 13.7069 7.42292C13.9942 7.35426 14.2569 7.2074 14.4659 6.99861C14.6749 6.78982 14.822 6.52724 14.8909 6.23998C14.9336 6.05438 14.9336 5.84532 14.9336 5.59998V2.93332C14.9336 2.68905 14.9336 2.47892 14.8898 2.29332C14.8212 2.006 14.6743 1.74329 14.4655 1.53431C14.2567 1.32533 13.9942 1.17823 13.7069 1.10932C13.5213 1.06665 13.3122 1.06665 13.0669 1.06665H10.4536ZM10.0088 2.14825C10.0546 2.13758 10.1261 2.13332 10.4536 2.13332H13.0136C13.3421 2.13332 13.4125 2.13652 13.4584 2.14825C13.5542 2.17116 13.6418 2.22017 13.7114 2.28983C13.7811 2.3595 13.8301 2.4471 13.853 2.54292C13.8637 2.58772 13.8669 2.65812 13.8669 2.98665V5.54665C13.8669 5.87518 13.8626 5.94558 13.852 5.99145C13.829 6.08727 13.78 6.17487 13.7104 6.24453C13.6407 6.3142 13.5531 6.3632 13.4573 6.38612C13.4125 6.39678 13.3421 6.39998 13.0136 6.39998H10.4536C10.125 6.39998 10.0546 6.39678 10.0088 6.38505C9.91294 6.36214 9.82534 6.31313 9.75568 6.24347C9.68601 6.1738 9.63701 6.0862 9.61409 5.99038C9.60449 5.94665 9.60023 5.87625 9.60023 5.54665V2.98665C9.60023 2.65812 9.60343 2.58772 9.61516 2.54185C9.63807 2.44603 9.68708 2.35843 9.75674 2.28877C9.82641 2.2191 9.91401 2.1701 10.0098 2.14718L10.0088 2.14825ZM2.93356 8.53332H5.60023C5.84449 8.53332 6.05463 8.53332 6.24023 8.57705C6.52755 8.64571 6.79025 8.79257 6.99923 9.00136C7.20822 9.21015 7.35531 9.47272 7.42423 9.75998C7.46689 9.94558 7.46689 10.1547 7.46689 10.4V13.0667C7.46689 13.3109 7.46689 13.5211 7.42316 13.7067C7.35451 13.994 7.20764 14.2567 6.99885 14.4657C6.79006 14.6746 6.52749 14.8217 6.24023 14.8907C6.05463 14.9333 5.84556 14.9333 5.60023 14.9333H2.93356C2.68929 14.9333 2.47916 14.9333 2.29356 14.8896C2.00624 14.8209 1.74353 14.6741 1.53455 14.4653C1.32557 14.2565 1.17848 13.9939 1.10956 13.7067C1.06689 13.5211 1.06689 13.312 1.06689 13.0667V10.4C1.06689 10.1557 1.06689 9.94558 1.11063 9.75998C1.17928 9.47266 1.32614 9.20996 1.53494 9.00098C1.74373 8.792 2.0063 8.6449 2.29356 8.57598C2.47916 8.53332 2.68823 8.53332 2.93356 8.53332ZM2.98689 9.59998C2.65836 9.59998 2.58796 9.60318 2.54209 9.61492C2.44628 9.63783 2.35868 9.68684 2.28901 9.7565C2.21935 9.82617 2.17034 9.91377 2.14743 10.0096C2.13783 10.0533 2.13356 10.1237 2.13356 10.4533V13.0133C2.13356 13.3419 2.13676 13.4123 2.14849 13.4581C2.17141 13.5539 2.22041 13.6415 2.29008 13.7112C2.35974 13.7809 2.44734 13.8299 2.54316 13.8528C2.58796 13.8635 2.65836 13.8667 2.98689 13.8667H5.54689C5.87543 13.8667 5.94583 13.8624 5.99169 13.8517C6.08751 13.8288 6.17511 13.7798 6.24478 13.7101C6.31444 13.6405 6.36345 13.5529 6.38636 13.4571C6.39703 13.4123 6.40023 13.3419 6.40023 13.0133V10.4533C6.40023 10.1248 6.39703 10.0544 6.38529 10.0085C6.36238 9.9127 6.31337 9.8251 6.24371 9.75544C6.17405 9.68577 6.08645 9.63676 5.99063 9.61385C5.94689 9.60425 5.87649 9.59998 5.54689 9.59998H2.98689ZM10.4536 8.53332H10.4002C10.156 8.53332 9.94583 8.53332 9.76023 8.57705C9.47291 8.64571 9.2102 8.79257 9.00122 9.00136C8.79224 9.21015 8.64514 9.47272 8.57623 9.75998C8.53356 9.94558 8.53356 10.1547 8.53356 10.4V13.0667C8.53356 13.3109 8.53356 13.5211 8.57729 13.7067C8.64595 13.994 8.79281 14.2567 9.0016 14.4657C9.2104 14.6746 9.47297 14.8217 9.76023 14.8907C9.94583 14.9344 10.156 14.9344 10.4002 14.9344H13.0669C13.3112 14.9344 13.5213 14.9344 13.7069 14.8907C13.994 14.8218 14.2565 14.6749 14.4653 14.4661C14.6741 14.2573 14.821 13.9948 14.8898 13.7077C14.9336 13.5221 14.9336 13.312 14.9336 13.0677V10.4C14.9336 10.1557 14.9336 9.94558 14.8898 9.75998C14.8212 9.47266 14.6743 9.20996 14.4655 9.00098C14.2567 8.792 13.9942 8.6449 13.7069 8.57598C13.5213 8.53332 13.3122 8.53332 13.0669 8.53332H10.4536ZM10.0088 9.61492C10.0546 9.60425 10.1261 9.59998 10.4536 9.59998H13.0136C13.3421 9.59998 13.4125 9.60318 13.4584 9.61492C13.5542 9.63783 13.6418 9.68684 13.7114 9.7565C13.7811 9.82617 13.8301 9.91377 13.853 10.0096C13.8637 10.0544 13.8669 10.1248 13.8669 10.4533V13.0133C13.8669 13.3419 13.8626 13.4123 13.852 13.4581C13.829 13.5539 13.78 13.6415 13.7104 13.7112C13.6407 13.7809 13.5531 13.8299 13.4573 13.8528C13.4125 13.8635 13.3421 13.8667 13.0136 13.8667H10.4536C10.125 13.8667 10.0546 13.8624 10.0088 13.8517C9.91294 13.8288 9.82534 13.7798 9.75568 13.7101C9.68601 13.6405 9.63701 13.5529 9.61409 13.4571C9.60449 13.4133 9.60023 13.3429 9.60023 13.0133V10.4533C9.60023 10.1248 9.60343 10.0544 9.61516 10.0085C9.63807 9.9127 9.68708 9.8251 9.75674 9.75544C9.82641 9.68577 9.91401 9.63676 10.0098 9.61385L10.0088 9.61492Z"/>
</svg>