<svg width="16" height="16" viewBox="0 0 16 16" fill="none" xmlns="http://www.w3.org/2000/svg">
<path d="M9.6 13.8667C9.70609 13.8667 9.80783 13.8245 9.88284 13.7495C9.95786 13.6745 10 13.5728 10 13.4667C10 13.3606 9.95786 13.2589 9.88284 13.1838C9.80783 13.1088 9.70609 13.0667 9.6 13.0667H4.4C3.97565 13.0667 3.56869 12.8981 3.26863 12.5981C2.96857 12.298 2.8 11.891 2.8 11.4667V5.06669C2.8 4.64234 2.96857 4.23537 3.26863 3.93532C3.56869 3.63526 3.97565 3.46669 4.4 3.46669H9.6C9.70609 3.46669 9.80783 3.42454 9.88284 3.34953C9.95786 3.27452 10 3.17277 10 3.06669C10 2.9606 9.95786 2.85886 9.88284 2.78384C9.80783 2.70883 9.70609 2.66669 9.6 2.66669H4.4C3.76348 2.66669 3.15303 2.91954 2.70294 3.36963C2.25286 3.81972 2 4.43017 2 5.06669V11.4667C2 12.1032 2.25286 12.7137 2.70294 13.1637C3.15303 13.6138 3.76348 13.8667 4.4 13.8667H9.6ZM10.5168 5.18349C10.554 5.14624 10.5981 5.11668 10.6467 5.09652C10.6953 5.07635 10.7474 5.06597 10.8 5.06597C10.8526 5.06597 10.9047 5.07635 10.9533 5.09652C11.0019 5.11668 11.046 5.14624 11.0832 5.18349L13.8832 7.98349C13.9205 8.02064 13.95 8.06478 13.9702 8.11338C13.9903 8.16198 14.0007 8.21407 14.0007 8.26669C14.0007 8.3193 13.9903 8.3714 13.9702 8.41999C13.95 8.46859 13.9205 8.51273 13.8832 8.54989L11.0832 11.3499C11.046 11.3871 11.0019 11.4166 10.9533 11.4367C10.9047 11.4568 10.8526 11.4672 10.8 11.4672C10.7474 11.4672 10.6953 11.4568 10.6467 11.4367C10.5981 11.4166 10.554 11.3871 10.5168 11.3499C10.4796 11.3127 10.4501 11.2685 10.43 11.22C10.4099 11.1714 10.3995 11.1193 10.3995 11.0667C10.3995 11.0141 10.4099 10.962 10.43 10.9134C10.4501 10.8648 10.4796 10.8207 10.5168 10.7835L12.6344 8.66669H5.6C5.49391 8.66669 5.39217 8.62454 5.31716 8.54953C5.24214 8.47452 5.2 8.37277 5.2 8.26669C5.2 8.1606 5.24214 8.05886 5.31716 7.98384C5.39217 7.90883 5.49391 7.86669 5.6 7.86669H12.6344L10.5168 5.74989C10.4795 5.71273 10.45 5.66859 10.4298 5.61999C10.4097 5.5714 10.3993 5.5193 10.3993 5.46669C10.3993 5.41407 10.4097 5.36198 10.4298 5.31338C10.45 5.26478 10.4795 5.22064 10.5168 5.18349Z" fill="#FCFCFC"/>
</svg>
