<svg width="16" height="16" viewBox="0 0 16 16" fill="currentColor" xmlns="http://www.w3.org/2000/svg">
<path fill-rule="evenodd" clip-rule="evenodd" d="M4.73285 0.833252H11.2668C11.9448 0.833252 12.4115 0.833252 12.8042 0.969252C13.1712 1.09886 13.5033 1.31137 13.7748 1.59026C14.0463 1.86915 14.2498 2.2069 14.3695 2.57725C14.5002 2.97525 14.4995 3.44859 14.4995 4.15059V13.5826C14.4995 14.5599 13.3482 15.1413 12.5902 14.4473C12.5659 14.424 12.5335 14.411 12.4998 14.411C12.4662 14.411 12.4338 14.424 12.4095 14.4473L12.0868 14.7419C11.4682 15.3086 10.5308 15.3086 9.91218 14.7419C9.8002 14.6374 9.65271 14.5792 9.49951 14.5792C9.34631 14.5792 9.19882 14.6374 9.08685 14.7419C8.46818 15.3086 7.53084 15.3086 6.91218 14.7419C6.8002 14.6374 6.65271 14.5792 6.49951 14.5792C6.34631 14.5792 6.19882 14.6374 6.08685 14.7419C5.46818 15.3086 4.53085 15.3086 3.91218 14.7419L3.59018 14.4473C3.56583 14.4238 3.53333 14.4107 3.49951 14.4107C3.4657 14.4107 3.4332 14.4238 3.40885 14.4473C2.65085 15.1406 1.49951 14.5599 1.49951 13.5826V4.15125C1.49951 3.44859 1.49951 2.97525 1.62951 2.57725C1.74916 2.20688 1.95265 1.8691 2.22414 1.5902C2.49564 1.31131 2.82782 1.09881 3.19484 0.969252C3.58818 0.832585 4.05485 0.833252 4.73285 0.833252ZM4.83018 1.83325C4.01618 1.83325 3.73551 1.83992 3.52351 1.91392C3.3021 1.9931 3.10189 2.1222 2.93842 2.29123C2.77495 2.46025 2.65259 2.66465 2.58085 2.88859C2.50685 3.11459 2.50084 3.41192 2.50084 4.24659V13.5826C2.50084 13.6626 2.54018 13.7106 2.59018 13.7339C2.61299 13.7448 2.63842 13.7489 2.66351 13.7459C2.69057 13.7416 2.71555 13.7287 2.73485 13.7093C2.94345 13.5172 3.21663 13.4106 3.50018 13.4106C3.78372 13.4106 4.0569 13.5172 4.26551 13.7093L4.58751 14.0039C4.69949 14.1085 4.84698 14.1666 5.00018 14.1666C5.15338 14.1666 5.30087 14.1085 5.41285 14.0039C5.70914 13.7309 6.09729 13.5794 6.50018 13.5794C6.90307 13.5794 7.29122 13.7309 7.58751 14.0039C7.69949 14.1085 7.84698 14.1666 8.00018 14.1666C8.15338 14.1666 8.30087 14.1085 8.41285 14.0039C8.70914 13.7309 9.09729 13.5794 9.50018 13.5794C9.90307 13.5794 10.2912 13.7309 10.5875 14.0039C10.6995 14.1085 10.847 14.1666 11.0002 14.1666C11.1534 14.1666 11.3009 14.1085 11.4128 14.0039L11.7348 13.7093C11.9435 13.5172 12.2166 13.4106 12.5002 13.4106C12.7837 13.4106 13.0569 13.5172 13.2655 13.7093C13.2942 13.7359 13.3188 13.7439 13.3375 13.7459C13.3624 13.7488 13.3876 13.7447 13.4102 13.7339C13.4602 13.7106 13.5002 13.6619 13.5002 13.5826V4.24659C13.5002 3.41192 13.4935 3.11459 13.4202 2.88859C13.3483 2.66449 13.2258 2.45998 13.0621 2.29094C12.8984 2.1219 12.6979 1.99288 12.4762 1.91392C12.2648 1.84059 11.9842 1.83392 11.1702 1.83392L4.83018 1.83325ZM10.0002 4.95992C10.0493 5.00366 10.0892 5.05665 10.1178 5.11585C10.1464 5.17506 10.163 5.23932 10.1667 5.30496C10.1705 5.37059 10.1612 5.43632 10.1395 5.49837C10.1178 5.56043 10.084 5.61759 10.0402 5.66659L7.65885 8.33325C7.61194 8.38579 7.55447 8.42783 7.49019 8.45662C7.42591 8.4854 7.35628 8.50028 7.28585 8.50028C7.21542 8.50028 7.14578 8.4854 7.0815 8.45662C7.01722 8.42783 6.95975 8.38579 6.91285 8.33325L5.96085 7.26659C5.87335 7.16761 5.82857 7.03803 5.83631 6.90615C5.84404 6.77428 5.90365 6.65082 6.00211 6.56274C6.10057 6.47467 6.22989 6.42915 6.36181 6.43611C6.49373 6.44308 6.61754 6.50197 6.70618 6.59992L7.28618 7.24925L9.29418 5.00059C9.33786 4.95155 9.39078 4.91161 9.4499 4.88303C9.50902 4.85445 9.57319 4.83779 9.63875 4.83402C9.70431 4.83024 9.76998 4.83941 9.83199 4.86102C9.894 4.88262 9.95115 4.91623 10.0002 4.95992ZM4.50018 10.3333C4.50018 10.2006 4.55286 10.0735 4.64662 9.9797C4.74039 9.88593 4.86757 9.83325 5.00018 9.83325H11.0002C11.1328 9.83325 11.26 9.88593 11.3537 9.9797C11.4475 10.0735 11.5002 10.2006 11.5002 10.3333C11.5002 10.4659 11.4475 10.593 11.3537 10.6868C11.26 10.7806 11.1328 10.8333 11.0002 10.8333H5.00018C4.86757 10.8333 4.74039 10.7806 4.64662 10.6868C4.55286 10.593 4.50018 10.4659 4.50018 10.3333Z" fill="#FCFCFC"/>
</svg>
