<svg width="25" height="22" viewBox="0 0 25 22" fill="#5A6B7A" xmlns="http://www.w3.org/2000/svg">
    <g opacity="0.5">
        <path d="M21.076 3.3H3.41947C2.1688 3.3 1.10205 4.2625 1.10205 5.46562V16.6031C1.10205 17.7719 2.13202 18.7687 3.41947 18.7687H21.076C22.3267 18.7687 23.3934 17.8062 23.3934 16.6031V5.43125C23.3934 4.2625 22.3267 3.3 21.076 3.3ZM21.076 4.84687C21.1128 4.84687 21.1496 4.84687 21.1864 4.84687L12.2477 10.2094L3.30912 4.84687C3.3459 4.84687 3.38269 4.84687 3.41947 4.84687H21.076ZM21.076 17.1531H3.41947C3.05163 17.1531 2.75735 16.8781 2.75735 16.5344V6.35937L11.3649 11.5156C11.6224 11.6875 11.9167 11.7562 12.211 11.7562C12.5052 11.7562 12.7995 11.6875 13.057 11.5156L21.6646 6.35937V16.5687C21.7381 16.9125 21.4439 17.1531 21.076 17.1531Z"
              fill="#5A6B7A"/>
    </g>
</svg>
