<svg width="12" height="12" viewBox="0 0 12 12" fill="none" xmlns="http://www.w3.org/2000/svg">
    <path d="M8 12C6.68889 12 5.52222 11.6278 4.5 10.8833C3.47778 10.1389 2.75556 9.17778 2.33333 8H0V6.66667H2.03333C2 6.4 1.98622 6.15289 1.992 5.92533C1.99778 5.69778 2.01156 5.50044 2.03333 5.33333H0V4H2.33333C2.75556 2.82222 3.47778 1.86111 4.5 1.11667C5.52222 0.372222 6.68889 0 8 0C8.76667 0 9.49178 0.136222 10.1753 0.408667C10.8589 0.681111 11.4671 1.056 12 1.53333L11.05 2.46667C10.6389 2.11111 10.1751 1.83333 9.65867 1.63333C9.14222 1.43333 8.58933 1.33333 8 1.33333C7.05556 1.33333 6.21111 1.58067 5.46667 2.07533C4.72222 2.57 4.16111 3.21156 3.78333 4H8V5.33333H3.38333C3.33889 5.63333 3.32222 5.89733 3.33333 6.12533C3.34444 6.35333 3.36111 6.53378 3.38333 6.66667H8V8H3.78333C4.16111 8.78889 4.72222 9.43067 5.46667 9.92533C6.21111 10.42 7.05556 10.6671 8 10.6667C8.58889 10.6667 9.14178 10.5667 9.65867 10.3667C10.1756 10.1667 10.6393 9.88889 11.05 9.53333L12 10.4667C11.4667 10.9444 10.8582 11.3196 10.1747 11.592C9.49111 11.8644 8.76622 12.0004 8 12Z"
          fill="#364959"/>
</svg>
