<svg width="16" height="16" viewBox="0 0 16 16" fill="currentColor" xmlns="http://www.w3.org/2000/svg">
<path fill-rule="evenodd" clip-rule="evenodd" d="M4.73333 1H11.2673C11.9453 1 12.412 1 12.8047 1.136C13.1717 1.26561 13.5038 1.47812 13.7753 1.75701C14.0468 2.0359 14.2503 2.37365 14.37 2.744C14.5007 3.142 14.5 3.61533 14.5 4.31733V13.7493C14.5 14.7267 13.3487 15.308 12.5907 14.614C12.5663 14.5907 12.534 14.5777 12.5003 14.5777C12.4667 14.5777 12.4343 14.5907 12.41 14.614L12.0873 14.9087C11.4687 15.4753 10.5313 15.4753 9.91267 14.9087C9.80069 14.8041 9.6532 14.746 9.5 14.746C9.3468 14.746 9.19931 14.8041 9.08733 14.9087C8.46867 15.4753 7.53133 15.4753 6.91267 14.9087C6.80069 14.8041 6.6532 14.746 6.5 14.746C6.3468 14.746 6.19931 14.8041 6.08733 14.9087C5.46867 15.4753 4.53133 15.4753 3.91267 14.9087L3.59067 14.614C3.56632 14.5905 3.53382 14.5774 3.5 14.5774C3.46618 14.5774 3.43368 14.5905 3.40933 14.614C2.65133 15.3073 1.5 14.7267 1.5 13.7493V4.318C1.5 3.61533 1.5 3.142 1.63 2.744C1.74965 2.37362 1.95313 2.03585 2.22463 1.75695C2.49613 1.47806 2.82831 1.26556 3.19533 1.136C3.58867 0.999333 4.05533 1 4.73333 1ZM4.83067 2C4.01667 2 3.736 2.00667 3.524 2.08067C3.30259 2.15985 3.10238 2.28895 2.93891 2.45798C2.77543 2.627 2.65308 2.8314 2.58133 3.05533C2.50733 3.28133 2.50133 3.57867 2.50133 4.41333V13.7493C2.50133 13.8293 2.54067 13.8773 2.59067 13.9007C2.61348 13.9115 2.63891 13.9157 2.664 13.9127C2.69106 13.9083 2.71604 13.8955 2.73533 13.876C2.94394 13.684 3.21712 13.5774 3.50067 13.5774C3.78421 13.5774 4.05739 13.684 4.266 13.876L4.588 14.1707C4.69998 14.2752 4.84747 14.3334 5.00067 14.3334C5.15387 14.3334 5.30136 14.2752 5.41333 14.1707C5.70963 13.8977 6.09778 13.7461 6.50067 13.7461C6.90356 13.7461 7.29171 13.8977 7.588 14.1707C7.69998 14.2752 7.84747 14.3334 8.00067 14.3334C8.15387 14.3334 8.30136 14.2752 8.41333 14.1707C8.70963 13.8977 9.09778 13.7461 9.50067 13.7461C9.90356 13.7461 10.2917 13.8977 10.588 14.1707C10.7 14.2752 10.8475 14.3334 11.0007 14.3334C11.1539 14.3334 11.3014 14.2752 11.4133 14.1707L11.7353 13.876C11.9439 13.684 12.2171 13.5774 12.5007 13.5774C12.7842 13.5774 13.0574 13.684 13.266 13.876C13.2947 13.9027 13.3193 13.9107 13.338 13.9127C13.3629 13.9156 13.3881 13.9114 13.4107 13.9007C13.4607 13.8773 13.5007 13.8287 13.5007 13.7493V4.41333C13.5007 3.57867 13.494 3.28133 13.4207 3.05533C13.3488 2.83124 13.2263 2.62672 13.0626 2.45768C12.8988 2.28864 12.6984 2.15963 12.4767 2.08067C12.2653 2.00733 11.9847 2.00067 11.1707 2.00067L4.83067 2ZM10.0007 5.12667C10.0497 5.1704 10.0897 5.22339 10.1183 5.2826C10.1469 5.34181 10.1635 5.40607 10.1672 5.4717C10.1709 5.53734 10.1617 5.60307 10.14 5.66512C10.1182 5.72717 10.0845 5.78434 10.0407 5.83333L7.65933 8.5C7.61243 8.55254 7.55496 8.59458 7.49068 8.62336C7.4264 8.65215 7.35676 8.66703 7.28633 8.66703C7.2159 8.66703 7.14627 8.65215 7.08199 8.62336C7.01771 8.59458 6.96024 8.55254 6.91333 8.5L5.96133 7.43333C5.87384 7.33436 5.82906 7.20478 5.83679 7.0729C5.84453 6.94102 5.90413 6.81756 6.0026 6.72949C6.10106 6.64142 6.23038 6.5959 6.3623 6.60286C6.49422 6.60983 6.61802 6.66872 6.70667 6.76667L7.28667 7.416L9.29467 5.16733C9.33835 5.1183 9.39126 5.07835 9.45039 5.04977C9.50951 5.02119 9.57368 5.00454 9.63924 5.00076C9.7048 4.99699 9.77046 5.00616 9.83248 5.02777C9.89449 5.04937 9.95164 5.08297 10.0007 5.12667ZM4.50067 10.5C4.50067 10.3674 4.55335 10.2402 4.64711 10.1464C4.74088 10.0527 4.86806 10 5.00067 10H11.0007C11.1333 10 11.2605 10.0527 11.3542 10.1464C11.448 10.2402 11.5007 10.3674 11.5007 10.5C11.5007 10.6326 11.448 10.7598 11.3542 10.8536C11.2605 10.9473 11.1333 11 11.0007 11H5.00067C4.86806 11 4.74088 10.9473 4.64711 10.8536C4.55335 10.7598 4.50067 10.6326 4.50067 10.5Z" fill="#FCFCFC"/>
<rect x="4.83301" y="4.33325" width="6.66667" height="4.66667" fill="#364959"/>
<path fill-rule="evenodd" clip-rule="evenodd" d="M8.2335 4.59251C8.2335 4.52375 8.20891 4.45781 8.16515 4.40919C8.1214 4.36057 8.06205 4.33325 8.00016 4.33325C7.93828 4.33325 7.87893 4.36057 7.83517 4.40919C7.79141 4.45781 7.76683 4.52375 7.76683 4.59251V4.85177C7.51929 4.85177 7.2819 4.96103 7.10686 5.15551C6.93183 5.34999 6.8335 5.61377 6.8335 5.88881C6.8335 6.16385 6.93183 6.42762 7.10686 6.6221C7.2819 6.81659 7.51929 6.92584 7.76683 6.92584V7.96288C7.67031 7.9629 7.57615 7.92967 7.49733 7.86779C7.4185 7.8059 7.35887 7.71838 7.32665 7.61729C7.30523 7.55365 7.26219 7.5019 7.20678 7.47316C7.15138 7.44442 7.08803 7.441 7.03038 7.46363C6.97272 7.48626 6.92537 7.53313 6.89849 7.59415C6.87162 7.65518 6.86739 7.72549 6.8867 7.78996C6.95107 7.99216 7.07027 8.16722 7.22789 8.29105C7.38551 8.41488 7.57379 8.48138 7.76683 8.4814V8.74066C7.76683 8.80942 7.79141 8.87536 7.83517 8.92398C7.87893 8.9726 7.93828 8.99992 8.00016 8.99992C8.06205 8.99992 8.1214 8.9726 8.16515 8.92398C8.20891 8.87536 8.2335 8.80942 8.2335 8.74066V8.4814C8.48103 8.4814 8.71843 8.37214 8.89346 8.17766C9.0685 7.98318 9.16683 7.7194 9.16683 7.44436C9.16683 7.16932 9.0685 6.90555 8.89346 6.71107C8.71843 6.51658 8.48103 6.40733 8.2335 6.40733V5.37029C8.33002 5.37027 8.42417 5.4035 8.503 5.46539C8.58183 5.52727 8.64146 5.61479 8.67368 5.71588C8.69509 5.77952 8.73813 5.83127 8.79354 5.86001C8.84895 5.88875 8.91229 5.89217 8.96995 5.86954C9.0276 5.84691 9.07496 5.80004 9.10183 5.73902C9.1287 5.67799 9.13294 5.60768 9.11363 5.54321C9.04925 5.34101 8.93005 5.16595 8.77243 5.04212C8.61482 4.91829 8.42653 4.85179 8.2335 4.85177V4.59251ZM7.76683 5.37029C7.64306 5.37029 7.52436 5.42492 7.43685 5.52216C7.34933 5.6194 7.30016 5.75129 7.30016 5.88881C7.30016 6.02633 7.34933 6.15821 7.43685 6.25546C7.52436 6.3527 7.64306 6.40733 7.76683 6.40733V5.37029ZM8.2335 6.92584V7.96288C8.35726 7.96288 8.47596 7.90825 8.56348 7.81101C8.651 7.71377 8.70016 7.58188 8.70016 7.44436C8.70016 7.30684 8.651 7.17496 8.56348 7.07772C8.47596 6.98047 8.35726 6.92584 8.2335 6.92584Z" fill="#FCFCFC"/>
</svg>
