<svg width="16" height="16" viewBox="0 0 16 16" fill="none" xmlns="http://www.w3.org/2000/svg">
    <g clip-path="url(#clip0_1650_872)">
        <path d="M14.6666 8.44453C14.6081 8.44487 14.5501 8.43366 14.496 8.41154C14.4418 8.38942 14.3926 8.35683 14.351 8.31564L7.99993 1.96009L1.64882 8.31564C1.5638 8.38845 1.45443 8.4265 1.34257 8.42218C1.23072 8.41786 1.12461 8.37149 1.04546 8.29234C0.966305 8.21318 0.919935 8.10708 0.915615 7.99522C0.911294 7.88336 0.949341 7.774 1.02215 7.68897L7.68882 1.02231C7.77209 0.939529 7.88474 0.893066 8.00215 0.893066C8.11957 0.893066 8.23221 0.939529 8.31549 1.02231L14.9822 7.68897C15.0433 7.75137 15.0847 7.8304 15.1012 7.9162C15.1177 8.002 15.1085 8.09075 15.0749 8.17137C15.0412 8.25199 14.9845 8.3209 14.9119 8.36948C14.8393 8.41807 14.754 8.44417 14.6666 8.44453Z"
              fill="#FEFEFE"/>
        <path d="M8.00008 3.4624L2.66675 8.81351V14.2224C2.66675 14.4582 2.7604 14.6842 2.9271 14.8509C3.0938 15.0176 3.31989 15.1113 3.55564 15.1113H6.66675V10.6668H9.33341V15.1113H12.4445C12.6803 15.1113 12.9064 15.0176 13.0731 14.8509C13.2398 14.6842 13.3334 14.4582 13.3334 14.2224V8.7824L8.00008 3.4624Z"
              fill="#FEFEFE"/>
    </g>
    <defs>
        <clipPath id="clip0_1650_872">
            <rect width="16" height="16" fill="white"/>
        </clipPath>
    </defs>
</svg>
