<svg width="16" height="16" viewBox="0 0 16 18" xmlns="http://www.w3.org/2000/svg">
<path d="M15.1999 14.9344L14.6374 14.0625C14.5249 13.8938 14.4687 13.725 14.4687 13.5281V7.67815C14.4687 6.01877 13.7655 4.4719 12.4718 3.31877C11.4312 2.39065 10.0812 1.80002 8.64678 1.68752V1.12502C8.64678 0.787524 8.36553 0.478149 7.9999 0.478149C7.6624 0.478149 7.35303 0.759399 7.35303 1.12502V1.6594C7.29678 1.6594 7.24053 1.6594 7.18428 1.68752C3.92178 2.05315 1.4749 4.66877 1.4749 7.79065V13.5281C1.44678 13.8094 1.39053 13.95 1.33428 14.0344L0.799902 14.9344C0.631152 15.2156 0.631152 15.5531 0.799902 15.8344C0.968652 16.0875 1.2499 16.2563 1.55928 16.2563H7.38115V16.875C7.38115 17.2125 7.6624 17.5219 8.02803 17.5219C8.36553 17.5219 8.6749 17.2406 8.6749 16.875V16.2563H14.4687C14.778 16.2563 15.0593 16.0875 15.228 15.8344C15.3968 15.5531 15.3968 15.2156 15.1999 14.9344ZM2.23428 14.9906L2.43115 14.6531C2.5999 14.3719 2.68428 14.0344 2.74053 13.6406V7.79065C2.74053 5.31565 4.70928 3.2344 7.3249 2.95315C8.92803 2.7844 10.503 3.26252 11.6562 4.27502C12.6687 5.17502 13.2312 6.3844 13.2312 7.67815V13.5281C13.2312 13.95 13.3437 14.3438 13.5968 14.7375L13.7655 14.9906H2.23428Z" fill="currentColor"/>
</svg>
