<svg width="16" height="16" viewBox="0 0 16 16" fill="none" xmlns="http://www.w3.org/2000/svg">
<path d="M7.99994 2.66667C7.82313 2.66667 7.65356 2.7369 7.52853 2.86193C7.40351 2.98695 7.33327 3.15652 7.33327 3.33333C7.33327 4.46133 5.96927 5.02667 5.17127 4.22867C5.10977 4.16499 5.03621 4.1142 4.95487 4.07926C4.87354 4.04433 4.78606 4.02593 4.69754 4.02517C4.60902 4.0244 4.52123 4.04126 4.4393 4.07478C4.35737 4.1083 4.28294 4.15781 4.22034 4.2204C4.15775 4.283 4.10824 4.35743 4.07472 4.43936C4.0412 4.52129 4.02434 4.60908 4.0251 4.6976C4.02587 4.78612 4.04426 4.8736 4.0792 4.95494C4.11414 5.03627 4.16493 5.10983 4.2286 5.17133C5.0266 5.96933 4.46194 7.33333 3.33327 7.33333C3.15646 7.33333 2.98689 7.40357 2.86187 7.52859C2.73684 7.65362 2.6666 7.82319 2.6666 8C2.6666 8.17681 2.73684 8.34638 2.86187 8.4714C2.98689 8.59643 3.15646 8.66667 3.33327 8.66667C4.46127 8.66667 5.0266 10.0307 4.2286 10.8287C4.10717 10.9544 4.03997 11.1228 4.04149 11.2976C4.04301 11.4724 4.11312 11.6396 4.23673 11.7632C4.36033 11.8868 4.52754 11.9569 4.70234 11.9584C4.87713 11.96 5.04554 11.8928 5.17127 11.7713C5.96927 10.9733 7.33327 11.538 7.33327 12.6667C7.33327 12.8435 7.40351 13.013 7.52853 13.1381C7.65356 13.2631 7.82313 13.3333 7.99994 13.3333C8.17675 13.3333 8.34632 13.2631 8.47134 13.1381C8.59637 13.013 8.6666 12.8435 8.6666 12.6667C8.6666 11.5387 10.0306 10.9733 10.8286 11.7713C10.8901 11.835 10.9637 11.8858 11.045 11.9207C11.1263 11.9557 11.2138 11.9741 11.3023 11.9748C11.3909 11.9756 11.4786 11.9587 11.5606 11.9252C11.6425 11.8917 11.7169 11.8422 11.7795 11.7796C11.8421 11.717 11.8916 11.6426 11.9252 11.5606C11.9587 11.4787 11.9755 11.3909 11.9748 11.3024C11.974 11.2139 11.9556 11.1264 11.9207 11.0451C11.8857 10.9637 11.8349 10.8902 11.7713 10.8287C10.9733 10.0307 11.5379 8.66667 12.6666 8.66667C12.8434 8.66667 13.013 8.59643 13.138 8.4714C13.263 8.34638 13.3333 8.17681 13.3333 8C13.3333 7.82319 13.263 7.65362 13.138 7.52859C13.013 7.40357 12.8434 7.33333 12.6666 7.33333C11.5386 7.33333 10.9733 5.96933 11.7713 5.17133C11.8927 5.0456 11.9599 4.8772 11.9584 4.7024C11.9569 4.5276 11.8868 4.36039 11.7632 4.23679C11.6395 4.11318 11.4723 4.04307 11.2975 4.04155C11.1227 4.04003 10.9543 4.10723 10.8286 4.22867C10.0306 5.02667 8.6666 4.462 8.6666 3.33333C8.6666 3.15652 8.59637 2.98695 8.47134 2.86193C8.34632 2.7369 8.17675 2.66667 7.99994 2.66667ZM6.00527 3.18467C6.04214 2.68085 6.2683 2.20964 6.63831 1.86572C7.00832 1.52179 7.49477 1.33063 7.99994 1.33063C8.5051 1.33063 8.99156 1.52179 9.36157 1.86572C9.73158 2.20964 9.95774 2.68085 9.9946 3.18467C10.3771 2.85612 10.8697 2.6842 11.3736 2.70334C11.8775 2.72247 12.3555 2.93124 12.7121 3.28785C13.0686 3.64446 13.2772 4.12258 13.2963 4.62648C13.3153 5.13038 13.1432 5.62287 12.8146 6.00533C13.3184 6.04212 13.7897 6.26819 14.1337 6.63815C14.4776 7.0081 14.6689 7.49452 14.669 7.99969C14.6691 8.50486 14.478 8.99134 14.1341 9.36141C13.7903 9.73148 13.3191 9.95771 12.8153 9.99467C13.1438 10.3772 13.3157 10.8697 13.2966 11.3736C13.2775 11.8775 13.0687 12.3556 12.7121 12.7121C12.3555 13.0686 11.8774 13.2773 11.3735 13.2963C10.8696 13.3153 10.3771 13.1433 9.9946 12.8147C9.95774 13.3185 9.73158 13.7897 9.36157 14.1336C8.99156 14.4775 8.5051 14.6687 7.99994 14.6687C7.49477 14.6687 7.00832 14.4775 6.63831 14.1336C6.2683 13.7897 6.04214 13.3185 6.00527 12.8147C5.62281 13.1433 5.13032 13.3153 4.62642 13.2963C4.12252 13.2773 3.6444 13.0686 3.28779 12.7121C2.93118 12.3556 2.72241 11.8775 2.70328 11.3736C2.68414 10.8697 2.85606 10.3772 3.1846 9.99467C2.68079 9.9578 2.20958 9.73164 1.86566 9.36163C1.52173 8.99162 1.33057 8.50517 1.33057 8C1.33057 7.49483 1.52173 7.00838 1.86566 6.63837C2.20958 6.26836 2.68079 6.0422 3.1846 6.00533C2.85506 5.62294 2.6823 5.13007 2.701 4.62561C2.7197 4.12115 2.92846 3.64243 3.28541 3.28547C3.64236 2.92852 4.12109 2.71976 4.62555 2.70106C5.13001 2.68236 5.62288 2.85512 6.00527 3.18467Z" fill="#FCFCFC"/>
<path d="M7.99987 6.66664C7.64624 6.66664 7.3071 6.80711 7.05706 7.05716C6.80701 7.30721 6.66653 7.64635 6.66653 7.99997C6.66653 8.35359 6.80701 8.69273 7.05706 8.94278C7.3071 9.19283 7.64624 9.33331 7.99987 9.33331C8.35349 9.33331 8.69263 9.19283 8.94267 8.94278C9.19272 8.69273 9.3332 8.35359 9.3332 7.99997C9.3332 7.64635 9.19272 7.30721 8.94267 7.05716C8.69263 6.80711 8.35349 6.66664 7.99987 6.66664ZM6.11453 6.11464C6.36052 5.85995 6.65478 5.65679 6.98012 5.51704C7.30546 5.37728 7.65538 5.30371 8.00946 5.30064C8.36354 5.29756 8.71469 5.36503 9.04241 5.49911C9.37013 5.6332 9.66787 5.83121 9.91825 6.08159C10.1686 6.33197 10.3666 6.6297 10.5007 6.95743C10.6348 7.28515 10.7023 7.6363 10.6992 7.99038C10.6961 8.34445 10.6226 8.69437 10.4828 9.01972C10.343 9.34506 10.1399 9.63931 9.8852 9.88531C9.38226 10.3711 8.70865 10.6398 8.00946 10.6338C7.31027 10.6277 6.64144 10.3472 6.14702 9.85282C5.65259 9.3584 5.37214 8.68957 5.36607 7.99038C5.35999 7.29118 5.62878 6.61758 6.11453 6.11464Z" fill="#FCFCFC"/>
</svg>
