<svg width="25" height="22" viewBox="0 0 25 22" fill="none" xmlns="http://www.w3.org/2000/svg">
    <g opacity="0.5">
        <path d="M17.7654 6.80624V5.91249C17.7654 3.16249 15.5583 0.824994 12.7627 0.618744C11.2177 0.481244 9.6728 0.996869 8.53248 1.95937C7.39216 2.92187 6.73004 4.29687 6.73004 5.70624V6.80624C4.59654 7.18437 2.97803 8.93749 2.97803 11.0687V17.2906C2.97803 19.5594 4.96439 21.3812 7.35538 21.3812H17.0665C19.4943 21.3812 21.4806 19.525 21.4806 17.2562V11C21.5174 8.93749 19.8989 7.21874 17.7654 6.80624ZM9.63601 3.09374C10.4453 2.40624 11.512 2.06249 12.6156 2.16562C14.5651 2.33749 16.1101 3.98749 16.1101 5.91249V6.70312H8.38534V5.67187C8.38534 4.70937 8.82676 3.78124 9.63601 3.09374ZM19.8621 17.2906C19.8621 18.7 18.6114 19.8687 17.1033 19.8687H7.39216C5.884 19.8687 4.67011 18.7344 4.67011 17.325V11.0687C4.67011 9.52187 5.99435 8.28437 7.64965 8.28437H16.8458C18.5011 8.28437 19.8621 9.52187 19.8621 11V17.2906Z"
              fill="#5A6B7A"/>
        <path d="M12.2479 11.8594C11.8065 11.8594 11.4019 12.2031 11.4019 12.65V16.2594C11.4019 16.6719 11.7697 17.05 12.2479 17.05C12.6893 17.05 13.0939 16.7063 13.0939 16.2594V12.6156C13.0939 12.2031 12.6893 11.8594 12.2479 11.8594Z"
              fill="#5A6B7A"/>
    </g>
</svg>
