<svg width="17" height="15" viewBox="0 0 17 15" fill="none" xmlns="http://www.w3.org/2000/svg">
    <path d="M12.1 6.66676C12.1 7.5508 11.7558 8.39863 11.1432 9.02373C10.5306 9.64884 9.69967 10 8.8333 10C7.96693 10 7.13605 9.64884 6.52343 9.02373C5.91081 8.39863 5.56665 7.5508 5.56665 6.66676C5.56665 5.78272 5.91081 4.93489 6.52343 4.30979C7.13605 3.68468 7.96693 3.3335 8.8333 3.3335C9.69967 3.3335 10.5306 3.68468 11.1432 4.30979C11.7558 4.93489 12.1 5.78272 12.1 6.66676Z"
          fill="#FCFCFC"/>
    <path fill-rule="evenodd" clip-rule="evenodd"
          d="M8.50018 16.6597C4.14451 16.4813 0.666748 12.8214 0.666748 8.33316C0.666748 3.73076 4.32295 0 8.83337 0C13.3438 0 17 3.73076 17 8.33316C17 12.9356 13.3438 16.6663 8.83337 16.6663C8.79608 16.6666 8.75879 16.6666 8.72149 16.6663C8.64758 16.6663 8.57368 16.6638 8.50018 16.6597ZM3.59285 13.5914C3.53179 13.4125 3.51101 13.2218 3.53204 13.0336C3.55308 12.8453 3.61539 12.6643 3.71436 12.504C3.81333 12.3437 3.94641 12.2082 4.10372 12.1076C4.26104 12.0069 4.43854 11.9437 4.62307 11.9227C7.80642 11.5631 9.87993 11.5956 13.0478 11.9302C13.2325 11.9498 13.4105 12.0122 13.568 12.1126C13.7256 12.213 13.8586 12.3488 13.957 12.5096C14.0554 12.6704 14.1165 12.852 14.1357 13.0406C14.1549 13.2291 14.1316 13.4196 14.0678 13.5976C15.4254 12.196 16.1858 10.3039 16.1833 8.33316C16.1833 4.19116 12.8926 0.833316 8.83337 0.833316C4.77415 0.833316 1.48341 4.19116 1.48341 8.33316C1.48341 10.3815 2.28823 12.2381 3.59285 13.5914Z"
          fill="#FCFCFC"/>
</svg>
