<svg width="16" height="16" viewBox="0 0 16 16" xmlns="http://www.w3.org/2000/svg">
<path d="M8.00008 15.3066C7.63341 15.3066 7.33342 15.0333 7.33342 14.6666V14.6133C7.33342 14.2466 7.63341 13.9466 8.00008 13.9466C8.36675 13.9466 8.66675 14.2466 8.66675 14.6133C8.66675 14.98 8.36675 15.3066 8.00008 15.3066ZM12.7601 13.4266C12.5867 13.4266 12.4201 13.36 12.2867 13.2333L12.2001 13.1466C11.9401 12.8866 11.9401 12.4666 12.2001 12.2066C12.4601 11.9466 12.8801 11.9466 13.1401 12.2066L13.2267 12.2933C13.4867 12.5533 13.4867 12.9733 13.2267 13.2333C13.1001 13.36 12.9334 13.4266 12.7601 13.4266ZM3.24008 13.4266C3.06675 13.4266 2.90008 13.36 2.76675 13.2333C2.50675 12.9733 2.50675 12.5533 2.76675 12.2933L2.85342 12.2066C3.11342 11.9466 3.53341 11.9466 3.79341 12.2066C4.05341 12.4666 4.05341 12.8866 3.79341 13.1466L3.70675 13.2333C3.58008 13.36 3.40675 13.4266 3.24008 13.4266ZM14.6667 8.66663H14.6134C14.2467 8.66663 13.9467 8.36663 13.9467 7.99996C13.9467 7.63329 14.2467 7.33329 14.6134 7.33329C14.9801 7.33329 15.3067 7.63329 15.3067 7.99996C15.3067 8.36663 15.0334 8.66663 14.6667 8.66663ZM1.38675 8.66663H1.33341C0.966748 8.66663 0.666748 8.36663 0.666748 7.99996C0.666748 7.63329 0.966748 7.33329 1.33341 7.33329C1.70008 7.33329 2.02675 7.63329 2.02675 7.99996C2.02675 8.36663 1.75341 8.66663 1.38675 8.66663ZM12.6734 3.99329C12.5001 3.99329 12.3334 3.92663 12.2001 3.79996C11.9401 3.53996 11.9401 3.11996 12.2001 2.85996L12.2867 2.77329C12.5467 2.51329 12.9667 2.51329 13.2267 2.77329C13.4867 3.03329 13.4867 3.45329 13.2267 3.71329L13.1401 3.79996C13.0134 3.92663 12.8467 3.99329 12.6734 3.99329ZM3.32675 3.99329C3.15341 3.99329 2.98675 3.92663 2.85342 3.79996L2.76675 3.70663C2.50675 3.44663 2.50675 3.02663 2.76675 2.76663C3.02675 2.50663 3.44675 2.50663 3.70675 2.76663L3.79341 2.85329C4.05341 3.11329 4.05341 3.53329 3.79341 3.79329C3.66675 3.92663 3.49341 3.99329 3.32675 3.99329ZM8.00008 2.02663C7.63341 2.02663 7.33342 1.75329 7.33342 1.38663V1.33329C7.33342 0.966626 7.63341 0.666626 8.00008 0.666626C8.36675 0.666626 8.66675 0.966626 8.66675 1.33329C8.66675 1.69996 8.36675 2.02663 8.00008 2.02663Z" fill="currenColor"/>
</svg>
